<mxfile host="app.diagrams.net" agent="Mozilla/5.0 (Macintosh; Intel Mac OS X 10_15_7) AppleWebKit/537.36 (KHTML, like Gecko) Chrome/131.0.0.0 Safari/537.36" version="25.0.1" pages="2">
  <diagram name="Горизонтальний" id="47RMHWLgdR8SnZdTCYjl">
    <mxGraphModel dx="1764" dy="46" grid="1" gridSize="3.937" guides="1" tooltips="1" connect="1" arrows="1" fold="1" page="1" pageScale="1" pageWidth="1654" pageHeight="1169" math="0" shadow="0">
      <root>
        <mxCell id="0" />
        <mxCell id="1" parent="0" />
        <UserObject label="" tags="Фон" id="aCWiB2YqxUfsmSvsJaBf-1">
          <mxCell style="vsdxID=1;fillColor=none;gradientColor=none;shape=stencil(nZBLDoAgDERP0z3SIyjew0SURgSD+Lu9kMZoXLhwN9O+tukAlrNpJg1SzDH4QW/URgNYgZTkjA4UkwJUgGXng+6DX1zLfmoymdXo17xh5zmRJ6Q42BWCfc2oJfdAr+Yv+AP9Cb7OJ3H/2JG1HNGz/84klThPVCc=);strokeColor=#000000;strokeWidth=2;points=[];labelBackgroundColor=none;rounded=0;html=1;whiteSpace=wrap;" parent="1" vertex="1">
            <mxGeometry x="78.74" y="1185.04" width="1555.12" height="1133.85" as="geometry" />
          </mxCell>
        </UserObject>
        <UserObject label="" tags="Фон" id="aCWiB2YqxUfsmSvsJaBf-2">
          <mxCell style="vsdxID=2;edgeStyle=none;startArrow=none;endArrow=none;startSize=5;endSize=5;strokeWidth=2;strokeColor=#000000;spacingTop=0;spacingBottom=0;spacingLeft=0;spacingRight=0;verticalAlign=middle;html=1;labelBackgroundColor=#ffffff;rounded=0;entryX=1;entryY=0.866;entryDx=0;entryDy=0;entryPerimeter=0;" parent="1" target="aCWiB2YqxUfsmSvsJaBf-1" edge="1">
            <mxGeometry relative="1" as="geometry">
              <mxPoint as="offset" />
              <Array as="points" />
              <mxPoint x="877" y="2168" as="sourcePoint" />
              <mxPoint x="1617" y="2168" as="targetPoint" />
            </mxGeometry>
          </mxCell>
        </UserObject>
        <UserObject label="" tags="Фон" id="aCWiB2YqxUfsmSvsJaBf-3">
          <mxCell style="vsdxID=3;fillColor=#FFFFFF;gradientColor=none;shape=stencil(jU9bCoAwDDtN/2eLJ/BxD8HphrrJnK/bu9EPpyD4l7RJSICKRTWzBBSLd3aQu269AioBURslnfYBAVVARWed7J1dTct8bqIyosluMeFgn4gOFGfKahaO2nwKMf+rzMQjNIC7Cq9If+/a4cSTqboA);strokeColor=#000000;strokeWidth=2;points=[];labelBackgroundColor=#ffffff;rounded=0;html=1;whiteSpace=wrap;" parent="1" vertex="1">
            <mxGeometry x="877" y="2168" width="1" height="150.89" as="geometry" />
          </mxCell>
        </UserObject>
        <UserObject label="" tags="Фон" id="aCWiB2YqxUfsmSvsJaBf-4">
          <mxCell style="vsdxID=4;edgeStyle=none;startArrow=none;endArrow=none;startSize=5;endSize=5;strokeWidth=2;strokeColor=#000000;spacingTop=0;spacingBottom=0;spacingLeft=0;spacingRight=0;verticalAlign=middle;html=1;labelBackgroundColor=#ffffff;rounded=0;" parent="1" edge="1">
            <mxGeometry relative="1" as="geometry">
              <mxPoint as="offset" />
              <Array as="points" />
              <mxPoint x="877" y="2248" as="sourcePoint" />
              <mxPoint x="1634" y="2249" as="targetPoint" />
            </mxGeometry>
          </mxCell>
        </UserObject>
        <UserObject label="" tags="Фон" id="aCWiB2YqxUfsmSvsJaBf-5">
          <mxCell style="vsdxID=5;fillColor=#FFFFFF;gradientColor=none;shape=stencil(jU9bCoAwDDtN/2eLJ/BxD8HphrrJnK/bu9EPpyD4l7RJSICKRTWzBBSLd3aQu269AioBURslnfYBAVVARWed7J1dTct8bqIyosluMeFgn4gOFGfKahaO2nwKMf+rzMQjNIC7Cq9If+/a4cSTqboA);strokeColor=#000000;strokeWidth=2;points=[];labelBackgroundColor=#ffffff;rounded=0;html=1;whiteSpace=wrap;" parent="1" vertex="1">
            <mxGeometry x="1137" y="2168" width="1" height="150.89" as="geometry" />
          </mxCell>
        </UserObject>
        <UserObject label="" tags="Фон" id="aCWiB2YqxUfsmSvsJaBf-6">
          <mxCell style="vsdxID=6;fillColor=#FFFFFF;gradientColor=none;shape=stencil(jU9bCoAwDDtN/2eLJ/BxD8HphrrJnK/bu9EPpyD4l7RJSICKRTWzBBSLd3aQu269AioBURslnfYBAVVARWed7J1dTct8bqIyosluMeFgn4gOFGfKahaO2nwKMf+rzMQjNIC7Cq9If+/a4cSTqboA);strokeColor=#000000;strokeWidth=2;points=[];labelBackgroundColor=#ffffff;rounded=0;html=1;whiteSpace=wrap;" parent="1" vertex="1">
            <mxGeometry x="945" y="2168" width="1" height="150.89" as="geometry" />
          </mxCell>
        </UserObject>
        <UserObject label="" tags="Фон" id="aCWiB2YqxUfsmSvsJaBf-7">
          <mxCell style="vsdxID=7;fillColor=#FFFFFF;gradientColor=none;shape=stencil(jU9bCoAwDDtN/2eLJ/BxD8HphrrJnK/bu9EPpyD4l7RJSICKRTWzBBSLd3aQu269AioBURslnfYBAVVARWed7J1dTct8bqIyosluMeFgn4gOFGfKahaO2nwKMf+rzMQjNIC7Cq9If+/a4cSTqboA);strokeColor=#000000;strokeWidth=2;points=[];labelBackgroundColor=#ffffff;rounded=0;html=1;whiteSpace=wrap;" parent="1" vertex="1">
            <mxGeometry x="1037" y="2168" width="1" height="80" as="geometry" />
          </mxCell>
        </UserObject>
        <UserObject label="" tags="Фон" id="aCWiB2YqxUfsmSvsJaBf-8">
          <mxCell style="vsdxID=8;fillColor=#FFFFFF;gradientColor=none;shape=stencil(jU9bCoAwDDtN/2eLJ/BxD8HphrrJnK/bu9EPpyD4l7RJSICKRTWzBBSLd3aQu269AioBURslnfYBAVVARWed7J1dTct8bqIyosluMeFgn4gOFGfKahaO2nwKMf+rzMQjNIC7Cq9If+/a4cSTqboA);strokeColor=#000000;strokeWidth=2;points=[];labelBackgroundColor=#ffffff;rounded=0;html=1;whiteSpace=wrap;" parent="1" vertex="1">
            <mxGeometry x="1097" y="2168" width="1" height="80" as="geometry" />
          </mxCell>
        </UserObject>
        <UserObject label="" tags="Фон" id="aCWiB2YqxUfsmSvsJaBf-9">
          <mxCell style="vsdxID=9;edgeStyle=none;startArrow=none;endArrow=none;startSize=5;endSize=5;strokeWidth=2;strokeColor=#000000;spacingTop=0;spacingBottom=0;spacingLeft=0;spacingRight=0;verticalAlign=middle;html=1;labelBackgroundColor=#ffffff;rounded=0;" parent="1" edge="1">
            <mxGeometry relative="1" as="geometry">
              <mxPoint as="offset" />
              <Array as="points" />
              <mxPoint x="877" y="2208" as="sourcePoint" />
              <mxPoint x="1137" y="2208" as="targetPoint" />
            </mxGeometry>
          </mxCell>
        </UserObject>
        <UserObject label="" tags="Фон" id="aCWiB2YqxUfsmSvsJaBf-10">
          <mxCell style="vsdxID=10;edgeStyle=none;startArrow=none;endArrow=none;startSize=5;endSize=5;strokeWidth=2;strokeColor=#000000;spacingTop=0;spacingBottom=0;spacingLeft=0;spacingRight=0;verticalAlign=middle;html=1;labelBackgroundColor=#ffffff;rounded=0;" parent="1" edge="1">
            <mxGeometry relative="1" as="geometry">
              <mxPoint as="offset" />
              <Array as="points" />
              <mxPoint x="877" y="2288" as="sourcePoint" />
              <mxPoint x="1137" y="2288" as="targetPoint" />
            </mxGeometry>
          </mxCell>
        </UserObject>
        <UserObject label="&lt;div style=&quot;font-size: 1px&quot;&gt;&lt;font style=&quot;font-size:12.7px;font-family:Times New Roman;color:#000000;direction:ltr;letter-spacing:0px;line-height:120%;opacity:1&quot;&gt;Розробив&lt;br/&gt;&lt;/font&gt;&lt;/div&gt;" tags="Фон" id="aCWiB2YqxUfsmSvsJaBf-11">
          <mxCell style="verticalAlign=middle;align=center;overflow=width;vsdxID=11;fillColor=none;gradientColor=none;shape=stencil(nZBLDoAgDERP0z3SIyjew0SURgSD+Lu9kMZoXLhwN9O+tukAlrNpJg1SzDH4QW/URgNYgZTkjA4UkwJUgGXng+6DX1zLfmoymdXo17xh5zmRJ6Q42BWCfc2oJfdAr+Yv+AP9Cb7OJ3H/2JG1HNGz/84klThPVCc=);strokeColor=none;points=[];labelBackgroundColor=none;rounded=0;html=1;whiteSpace=wrap;" parent="1" vertex="1">
            <mxGeometry x="877" y="2168" width="68" height="40" as="geometry" />
          </mxCell>
        </UserObject>
        <UserObject label="&lt;div style=&quot;font-size: 1px&quot;&gt;&lt;font style=&quot;font-size:12.7px;font-family:Times New Roman;color:#000000;direction:ltr;letter-spacing:0px;line-height:120%;opacity:1&quot;&gt;Перевірив&lt;br/&gt;&lt;/font&gt;&lt;/div&gt;" tags="Фон" id="aCWiB2YqxUfsmSvsJaBf-12">
          <mxCell style="verticalAlign=middle;align=center;overflow=width;vsdxID=12;fillColor=none;gradientColor=none;shape=stencil(nZBLDoAgDERP0z3SIyjew0SURgSD+Lu9kMZoXLhwN9O+tukAlrNpJg1SzDH4QW/URgNYgZTkjA4UkwJUgGXng+6DX1zLfmoymdXo17xh5zmRJ6Q42BWCfc2oJfdAr+Yv+AP9Cb7OJ3H/2JG1HNGz/84klThPVCc=);strokeColor=none;points=[];labelBackgroundColor=none;rounded=0;html=1;whiteSpace=wrap;" parent="1" vertex="1">
            <mxGeometry x="877" y="2208" width="68" height="40" as="geometry" />
          </mxCell>
        </UserObject>
        <UserObject label="&lt;div style=&quot;font-size: 1px&quot;&gt;&lt;font style=&quot;font-size:12.7px;font-family:Times New Roman;color:#000000;direction:ltr;letter-spacing:0px;line-height:120%;opacity:1&quot;&gt;Група&lt;br/&gt;&lt;/font&gt;&lt;/div&gt;" tags="Фон" id="aCWiB2YqxUfsmSvsJaBf-13">
          <mxCell style="verticalAlign=middle;align=center;overflow=width;vsdxID=13;fillColor=none;gradientColor=none;shape=stencil(nZBLDoAgDERP0z3SIyjew0SURgSD+Lu9kMZoXLhwN9O+tukAlrNpJg1SzDH4QW/URgNYgZTkjA4UkwJUgGXng+6DX1zLfmoymdXo17xh5zmRJ6Q42BWCfc2oJfdAr+Yv+AP9Cb7OJ3H/2JG1HNGz/84klThPVCc=);strokeColor=none;points=[];labelBackgroundColor=none;rounded=0;html=1;whiteSpace=wrap;" parent="1" vertex="1">
            <mxGeometry x="877" y="2248" width="68" height="31.52" as="geometry" />
          </mxCell>
        </UserObject>
        <UserObject label="&lt;div style=&quot;font-size: 1px&quot;&gt;&lt;font style=&quot;font-size:8.47px;font-family:Times New Roman;color:#000000;direction:ltr;letter-spacing:0px;line-height:120%;opacity:1&quot;&gt;Позначення документа&lt;br/&gt;&lt;/font&gt;&lt;/div&gt;" tags="Фон" id="aCWiB2YqxUfsmSvsJaBf-14">
          <mxCell style="verticalAlign=middle;align=center;overflow=width;vsdxID=14;fillColor=none;gradientColor=none;shape=stencil(nZBLDoAgDERP0z3SIyjew0SURgSD+Lu9kMZoXLhwN9O+tukAlrNpJg1SzDH4QW/URgNYgZTkjA4UkwJUgGXng+6DX1zLfmoymdXo17xh5zmRJ6Q42BWCfc2oJfdAr+Yv+AP9Cb7OJ3H/2JG1HNGz/84klThPVCc=);strokeColor=none;points=[];labelBackgroundColor=none;rounded=0;html=1;whiteSpace=wrap;" parent="1" vertex="1">
            <mxGeometry x="877" y="2288" width="68" height="30.89" as="geometry" />
          </mxCell>
        </UserObject>
        <UserObject label="&lt;div style=&quot;font-size: 1px&quot;&gt;&lt;font style=&quot;font-size: 12.7px; font-family: &amp;quot;Times New Roman&amp;quot;; direction: ltr; letter-spacing: 0px; line-height: 120%; opacity: 1;&quot;&gt;Писаренко А.В.&lt;/font&gt;&lt;/div&gt;" tags="Фон" id="aCWiB2YqxUfsmSvsJaBf-15">
          <mxCell style="verticalAlign=middle;align=center;overflow=width;vsdxID=15;fillColor=none;gradientColor=none;shape=stencil(nZBLDoAgDERP0z3SIyjew0SURgSD+Lu9kMZoXLhwN9O+tukAlrNpJg1SzDH4QW/URgNYgZTkjA4UkwJUgGXng+6DX1zLfmoymdXo17xh5zmRJ6Q42BWCfc2oJfdAr+Yv+AP9Cb7OJ3H/2JG1HNGz/84klThPVCc=);strokeColor=none;points=[];labelBackgroundColor=none;rounded=0;html=1;whiteSpace=wrap;" parent="1" vertex="1">
            <mxGeometry x="945" y="2208" width="92" height="40" as="geometry" />
          </mxCell>
        </UserObject>
        <UserObject label="&lt;div style=&quot;&quot;&gt;&lt;font face=&quot;Times New Roman&quot;&gt;&lt;span style=&quot;font-size: 12.7px;&quot;&gt;Гулящий І.С.&lt;/span&gt;&lt;/font&gt;&lt;/div&gt;" tags="Фон" id="aCWiB2YqxUfsmSvsJaBf-16">
          <mxCell style="verticalAlign=middle;align=center;overflow=width;vsdxID=16;fillColor=none;gradientColor=none;shape=stencil(nZBLDoAgDERP0z3SIyjew0SURgSD+Lu9kMZoXLhwN9O+tukAlrNpJg1SzDH4QW/URgNYgZTkjA4UkwJUgGXng+6DX1zLfmoymdXo17xh5zmRJ6Q42BWCfc2oJfdAr+Yv+AP9Cb7OJ3H/2JG1HNGz/84klThPVCc=);strokeColor=none;points=[];labelBackgroundColor=none;rounded=0;html=1;whiteSpace=wrap;" parent="1" vertex="1">
            <mxGeometry x="945" y="2168" width="92" height="40" as="geometry" />
          </mxCell>
        </UserObject>
        <UserObject label="&lt;div style=&quot;font-size: 1px&quot;&gt;&lt;font style=&quot;font-size: 14.11px; font-family: &amp;quot;Times New Roman&amp;quot;; direction: ltr; letter-spacing: 0px; line-height: 120%; opacity: 1;&quot;&gt;&lt;font style=&quot;letter-spacing: 0px; direction: ltr; line-height: 16.932px; opacity: 1;&quot;&gt;І&lt;/font&gt;&lt;font style=&quot;letter-spacing: 0px; direction: ltr; line-height: 16.932px; opacity: 1;&quot;&gt;А&lt;/font&gt;&lt;font style=&quot;letter-spacing: 0px; direction: ltr; line-height: 16.932px; opacity: 1;&quot;&gt;-3&lt;/font&gt;&lt;font style=&quot;letter-spacing: 0px; direction: ltr; line-height: 16.932px; opacity: 1;&quot;&gt;1&lt;/font&gt;&lt;font style=&quot;letter-spacing: 0px; direction: ltr; line-height: 16.932px; opacity: 1;&quot;&gt;мп&lt;/font&gt;&lt;/font&gt;&lt;/div&gt;" tags="Фон" id="aCWiB2YqxUfsmSvsJaBf-17">
          <mxCell style="verticalAlign=middle;align=center;overflow=width;vsdxID=17;fillColor=none;gradientColor=none;shape=stencil(nZBLDoAgDERP0z3SIyjew0SURgSD+Lu9kMZoXLhwN9O+tukAlrNpJg1SzDH4QW/URgNYgZTkjA4UkwJUgGXng+6DX1zLfmoymdXo17xh5zmRJ6Q42BWCfc2oJfdAr+Yv+AP9Cb7OJ3H/2JG1HNGz/84klThPVCc=);strokeColor=none;points=[];labelBackgroundColor=none;rounded=0;html=1;whiteSpace=wrap;" parent="1" vertex="1">
            <mxGeometry x="945" y="2248" width="192" height="40" as="geometry" />
          </mxCell>
        </UserObject>
        <UserObject label="&lt;div style=&quot;font-size: 1px&quot;&gt;&lt;font style=&quot;font-size: 14.11px; font-family: &amp;quot;Times New Roman&amp;quot;; direction: ltr; letter-spacing: 0px; line-height: 120%; opacity: 1;&quot;&gt;Додаток&lt;/font&gt;&lt;font style=&quot;font-size: 14.11px; font-family: &amp;quot;Times New Roman&amp;quot;; direction: ltr; letter-spacing: 0px; line-height: 120%; opacity: 1;&quot;&gt;&amp;nbsp;Ж&lt;br&gt;&lt;/font&gt;&lt;/div&gt;" tags="Фон" id="aCWiB2YqxUfsmSvsJaBf-18">
          <mxCell style="verticalAlign=middle;align=center;overflow=width;vsdxID=18;fillColor=none;gradientColor=none;shape=stencil(nZBLDoAgDERP0z3SIyjew0SURgSD+Lu9kMZoXLhwN9O+tukAlrNpJg1SzDH4QW/URgNYgZTkjA4UkwJUgGXng+6DX1zLfmoymdXo17xh5zmRJ6Q42BWCfc2oJfdAr+Yv+AP9Cb7OJ3H/2JG1HNGz/84klThPVCc=);strokeColor=none;points=[];labelBackgroundColor=none;rounded=0;html=1;whiteSpace=wrap;" parent="1" vertex="1">
            <mxGeometry x="944.88" y="2288" width="192.12" height="30.89" as="geometry" />
          </mxCell>
        </UserObject>
        <UserObject label="&lt;div style=&quot;&quot;&gt;&lt;font style=&quot;font-size: 20px;&quot; face=&quot;Times New Roman&quot;&gt;Еквайрингова платформа з використанням штучного інтелекту&lt;/font&gt;&lt;/div&gt;" tags="Фон" id="aCWiB2YqxUfsmSvsJaBf-19">
          <mxCell style="verticalAlign=middle;align=center;overflow=width;vsdxID=19;fillColor=none;gradientColor=none;shape=stencil(nZBLDoAgDERP0z3SIyjew0SURgSD+Lu9kMZoXLhwN9O+tukAlrNpJg1SzDH4QW/URgNYgZTkjA4UkwJUgGXng+6DX1zLfmoymdXo17xh5zmRJ6Q42BWCfc2oJfdAr+Yv+AP9Cb7OJ3H/2JG1HNGz/84klThPVCc=);strokeColor=none;points=[];labelBackgroundColor=none;rounded=0;html=1;whiteSpace=wrap;" parent="1" vertex="1">
            <mxGeometry x="1137.79" y="2168" width="496.07" height="80" as="geometry" />
          </mxCell>
        </UserObject>
        <UserObject label="&lt;div style=&quot;&quot;&gt;&lt;font style=&quot;font-size: 19.76px;&quot; face=&quot;Times New Roman&quot;&gt;Діаграма потоку даних&lt;/font&gt;&lt;/div&gt;" tags="Фон" id="aCWiB2YqxUfsmSvsJaBf-20">
          <mxCell style="verticalAlign=middle;align=center;overflow=width;vsdxID=20;fillColor=none;gradientColor=none;shape=stencil(nZBLDoAgDERP0z3SIyjew0SURgSD+Lu9kMZoXLhwN9O+tukAlrNpJg1SzDH4QW/URgNYgZTkjA4UkwJUgGXng+6DX1zLfmoymdXo17xh5zmRJ6Q42BWCfc2oJfdAr+Yv+AP9Cb7OJ3H/2JG1HNGz/84klThPVCc=);strokeColor=none;points=[];labelBackgroundColor=none;rounded=0;html=1;whiteSpace=wrap;" parent="1" vertex="1">
            <mxGeometry x="1137" y="2248" width="496.86" height="70.89" as="geometry" />
          </mxCell>
        </UserObject>
        <mxCell id="hh0JXyphqMA1IXvQrITY-15" value="" style="group" parent="1" vertex="1" connectable="0">
          <mxGeometry x="204.72" y="1228.35" width="1330.71" height="822.83" as="geometry" />
        </mxCell>
        <mxCell id="hh0JXyphqMA1IXvQrITY-1" value="Клієнт" style="whiteSpace=wrap;strokeWidth=2;" parent="hh0JXyphqMA1IXvQrITY-15" vertex="1">
          <mxGeometry x="667.82843866171" width="176.438624535316" height="97.86084951456313" as="geometry" />
        </mxCell>
        <mxCell id="hh0JXyphqMA1IXvQrITY-2" value="Еквайрингова платформа" style="whiteSpace=wrap;strokeWidth=2;" parent="hh0JXyphqMA1IXvQrITY-15" vertex="1">
          <mxGeometry x="552.4013011152417" y="241.65638349514563" width="410.5908178438662" height="97.86084951456313" as="geometry" />
        </mxCell>
        <mxCell id="hh0JXyphqMA1IXvQrITY-3" value="Модуль AI-аналізу" style="whiteSpace=wrap;strokeWidth=2;" parent="hh0JXyphqMA1IXvQrITY-15" vertex="1">
          <mxGeometry y="483.31276699029127" width="318.2491078066914" height="97.86084951456313" as="geometry" />
        </mxCell>
        <mxCell id="hh0JXyphqMA1IXvQrITY-4" value="База даних" style="whiteSpace=wrap;strokeWidth=2;" parent="hh0JXyphqMA1IXvQrITY-15" vertex="1">
          <mxGeometry x="42.87293680297398" y="724.969150485437" width="232.5032342007435" height="97.86084951456313" as="geometry" />
        </mxCell>
        <mxCell id="hh0JXyphqMA1IXvQrITY-5" value="Платіжний шлюз" style="whiteSpace=wrap;strokeWidth=2;" parent="hh0JXyphqMA1IXvQrITY-15" vertex="1">
          <mxGeometry x="400.697063197026" y="483.31276699029127" width="301.75951672862453" height="97.86084951456313" as="geometry" />
        </mxCell>
        <mxCell id="hh0JXyphqMA1IXvQrITY-6" value="Банк-еквайєр" style="whiteSpace=wrap;strokeWidth=2;" parent="hh0JXyphqMA1IXvQrITY-15" vertex="1">
          <mxGeometry x="809.6389219330856" y="724.969150485437" width="263.83345724907065" height="97.86084951456313" as="geometry" />
        </mxCell>
        <mxCell id="hh0JXyphqMA1IXvQrITY-7" value="Результат транзакції" style="whiteSpace=wrap;strokeWidth=2;" parent="hh0JXyphqMA1IXvQrITY-15" vertex="1">
          <mxGeometry x="784.9045353159852" y="483.31276699029127" width="351.2282899628253" height="97.86084951456313" as="geometry" />
        </mxCell>
        <mxCell id="hh0JXyphqMA1IXvQrITY-8" value="Генерує інвойс" style="curved=1;startArrow=none;endArrow=block;exitX=0.5;exitY=0.99;entryX=0.5;entryY=0;rounded=0;" parent="hh0JXyphqMA1IXvQrITY-15" source="hh0JXyphqMA1IXvQrITY-1" target="hh0JXyphqMA1IXvQrITY-2" edge="1">
          <mxGeometry relative="1" as="geometry">
            <Array as="points" />
          </mxGeometry>
        </mxCell>
        <mxCell id="hh0JXyphqMA1IXvQrITY-9" value="Перевірка ризиків" style="curved=1;startArrow=none;endArrow=block;exitX=0;exitY=0.92;entryX=0.5;entryY=0;rounded=0;" parent="hh0JXyphqMA1IXvQrITY-15" source="hh0JXyphqMA1IXvQrITY-2" target="hh0JXyphqMA1IXvQrITY-3" edge="1">
          <mxGeometry relative="1" as="geometry">
            <Array as="points">
              <mxPoint x="159.94903345724907" y="411.4150000000001" />
            </Array>
          </mxGeometry>
        </mxCell>
        <mxCell id="hh0JXyphqMA1IXvQrITY-10" value="Історія транзакцій" style="curved=1;startArrow=none;endArrow=block;exitX=0.5;exitY=0.99;entryX=0.5;entryY=0;rounded=0;" parent="hh0JXyphqMA1IXvQrITY-15" source="hh0JXyphqMA1IXvQrITY-3" target="hh0JXyphqMA1IXvQrITY-4" edge="1">
          <mxGeometry relative="1" as="geometry">
            <Array as="points" />
          </mxGeometry>
        </mxCell>
        <mxCell id="hh0JXyphqMA1IXvQrITY-11" value="Передача даних" style="curved=1;startArrow=none;endArrow=block;exitX=0.3;exitY=0.99;entryX=0.5;entryY=0;rounded=0;" parent="hh0JXyphqMA1IXvQrITY-15" source="hh0JXyphqMA1IXvQrITY-2" target="hh0JXyphqMA1IXvQrITY-5" edge="1">
          <mxGeometry relative="1" as="geometry">
            <Array as="points">
              <mxPoint x="552.4013011152417" y="411.4150000000001" />
            </Array>
          </mxGeometry>
        </mxCell>
        <mxCell id="hh0JXyphqMA1IXvQrITY-12" value="Авторизація" style="curved=1;startArrow=none;endArrow=block;exitX=0.5;exitY=0.99;entryX=0;entryY=0.08;rounded=0;" parent="hh0JXyphqMA1IXvQrITY-15" source="hh0JXyphqMA1IXvQrITY-5" target="hh0JXyphqMA1IXvQrITY-6" edge="1">
          <mxGeometry relative="1" as="geometry">
            <Array as="points">
              <mxPoint x="552.4013011152417" y="653.0713834951457" />
            </Array>
          </mxGeometry>
        </mxCell>
        <mxCell id="hh0JXyphqMA1IXvQrITY-13" value="Результат авторизації" style="curved=1;startArrow=none;endArrow=block;exitX=1;exitY=0.08;entryX=1;entryY=0.94;rounded=0;" parent="hh0JXyphqMA1IXvQrITY-15" source="hh0JXyphqMA1IXvQrITY-6" target="hh0JXyphqMA1IXvQrITY-2" edge="1">
          <mxGeometry relative="1" as="geometry">
            <Array as="points">
              <mxPoint x="1330.71" y="653.0713834951457" />
              <mxPoint x="1330.71" y="411.4150000000001" />
            </Array>
          </mxGeometry>
        </mxCell>
        <mxCell id="hh0JXyphqMA1IXvQrITY-14" value="Успіх/Відмова" style="curved=1;startArrow=none;endArrow=block;exitX=0.7;exitY=0.99;entryX=0.5;entryY=0;rounded=0;" parent="hh0JXyphqMA1IXvQrITY-15" source="hh0JXyphqMA1IXvQrITY-2" target="hh0JXyphqMA1IXvQrITY-7" edge="1">
          <mxGeometry relative="1" as="geometry">
            <Array as="points">
              <mxPoint x="961.3431598513012" y="411.4150000000001" />
            </Array>
          </mxGeometry>
        </mxCell>
      </root>
    </mxGraphModel>
  </diagram>
  <diagram id="u_J2DL20RISuq1NNkdda" name="Сторінка-2">
    <mxGraphModel dx="970" dy="668" grid="1" gridSize="10" guides="1" tooltips="1" connect="1" arrows="1" fold="1" page="1" pageScale="1" pageWidth="827" pageHeight="1169" math="0" shadow="0">
      <root>
        <mxCell id="0" />
        <mxCell id="1" parent="0" />
      </root>
    </mxGraphModel>
  </diagram>
</mxfile>
